<?xml version="1.0" encoding="UTF-8"?>
<!--Generator: Apple Native CoreSVG 175.5-->
<!DOCTYPE svg
PUBLIC "-//W3C//DTD SVG 1.1//EN"
       "http://www.w3.org/Graphics/SVG/1.1/DTD/svg11.dtd">
<svg version="1.1" xmlns="http://www.w3.org/2000/svg" xmlns:xlink="http://www.w3.org/1999/xlink" width="29.0156" height="23.7031">
 <g>
  <rect height="23.7031" opacity="0" width="29.0156" x="0" y="0"/>
  <path d="M29.0156 11.8438C29.0156 11.4531 28.8594 11.0938 28.5469 10.7969L18.1875 0.46875C17.8438 0.125 17.5156 0 17.1406 0C16.375 0 15.7812 0.5625 15.7812 1.34375C15.7812 1.71875 15.9062 2.07812 16.1562 2.32812L19.6562 5.89062L25.8594 11.5469L26.1719 10.7656L21.1406 10.4531L1.375 10.4531C0.5625 10.4531 0 11.0312 0 11.8438C0 12.6562 0.5625 13.2344 1.375 13.2344L21.1406 13.2344L26.1719 12.9219L25.8594 12.1562L19.6562 17.7969L16.1562 21.3594C15.9062 21.5938 15.7812 21.9688 15.7812 22.3438C15.7812 23.125 16.375 23.6875 17.1406 23.6875C17.5156 23.6875 17.8438 23.5469 18.1562 23.25L28.5469 12.8906C28.8594 12.5938 29.0156 12.2344 29.0156 11.8438Z" fill="#ffffff" fill-opacity="0.85"/>
 </g>
</svg>
